<svg width="243" height="130" viewBox="0 0 243 130" fill="none" xmlns="http://www.w3.org/2000/svg">
<rect x="0.413818" y="0.510742" width="241.672" height="129.081" rx="5" fill="url(#paint0_radial)"/>
<mask id="path-2-inside-1" fill="white">
<path fill-rule="evenodd" clip-rule="evenodd" d="M161.98 143.36L269.229 81.4398L249.04 46.4716L227.017 59.1868L161.98 143.36ZM210.215 68.8873L103.825 130.312L124.014 165.28L145.178 153.06L210.215 68.8873Z"/>
</mask>
<path d="M269.229 81.4398L269.865 82.5411L270.966 81.9053L270.33 80.804L269.229 81.4398ZM161.98 143.36L160.974 142.582L162.616 144.461L161.98 143.36ZM249.04 46.4716L250.141 45.8358L249.505 44.7345L248.404 45.3703L249.04 46.4716ZM227.017 59.1868L226.381 58.0856L226.164 58.2109L226.01 58.4094L227.017 59.1868ZM103.825 130.312L103.189 129.21L102.088 129.846L102.724 130.947L103.825 130.312ZM210.215 68.8873L211.221 69.6648L209.579 67.7861L210.215 68.8873ZM124.014 165.28L122.913 165.916L123.548 167.017L124.65 166.381L124.014 165.28ZM145.178 153.06L145.814 154.162L146.031 154.036L146.185 153.838L145.178 153.06ZM268.593 80.3386L161.344 142.259L162.616 144.461L269.865 82.5411L268.593 80.3386ZM247.939 47.1074L268.128 82.0757L270.33 80.804L250.141 45.8358L247.939 47.1074ZM227.652 60.2881L249.676 47.5729L248.404 45.3703L226.381 58.0856L227.652 60.2881ZM226.01 58.4094L160.974 142.582L162.986 144.137L228.023 59.9643L226.01 58.4094ZM104.461 131.413L210.851 69.9886L209.579 67.7861L103.189 129.21L104.461 131.413ZM125.115 164.644L104.926 129.676L102.724 130.947L122.913 165.916L125.115 164.644ZM144.542 151.959L123.378 164.179L124.65 166.381L145.814 154.162L144.542 151.959ZM146.185 153.838L211.221 69.6648L209.209 68.1098L144.172 152.283L146.185 153.838Z" fill="url(#paint1_radial)" mask="url(#path-2-inside-1)"/>
<mask id="path-4-inside-2" fill="white">
<path fill-rule="evenodd" clip-rule="evenodd" d="M32.1171 52.5071L121.674 0.801571L101.485 -34.1667L83.0945 -23.549L32.1171 52.5071ZM69.0644 -15.4488L-19.7751 35.8428L0.413778 70.811L18.087 60.6074L69.0644 -15.4488Z"/>
</mask>
<path d="M121.674 0.801571L122.31 1.90283L123.411 1.26702L122.775 0.165753L121.674 0.801571ZM32.1171 52.5071L31.0608 51.7991L32.7529 53.6084L32.1171 52.5071ZM101.485 -34.1667L102.586 -34.8025L101.95 -35.9038L100.849 -35.2679L101.485 -34.1667ZM83.0945 -23.549L82.4587 -24.6503L82.2027 -24.5025L82.0382 -24.257L83.0945 -23.549ZM-19.7751 35.8428L-20.411 34.7415L-21.5122 35.3773L-20.8764 36.4786L-19.7751 35.8428ZM69.0644 -15.4488L70.1207 -14.7408L68.4286 -16.55L69.0644 -15.4488ZM0.413778 70.811L-0.687486 71.4468L-0.0516711 72.5481L1.04959 71.9123L0.413778 70.811ZM18.087 60.6074L18.7228 61.7086L18.9788 61.5609L19.1433 61.3154L18.087 60.6074ZM121.038 -0.299692L31.4813 51.4058L32.7529 53.6084L122.31 1.90283L121.038 -0.299692ZM100.383 -33.5309L120.572 1.43739L122.775 0.165753L102.586 -34.8025L100.383 -33.5309ZM83.7303 -22.4478L102.121 -33.0654L100.849 -35.2679L82.4587 -24.6503L83.7303 -22.4478ZM82.0382 -24.257L31.0608 51.7991L33.1734 53.2151L84.1508 -22.8411L82.0382 -24.257ZM-19.1393 36.944L69.7002 -14.3475L68.4286 -16.55L-20.411 34.7415L-19.1393 36.944ZM1.51504 70.1752L-18.6739 35.207L-20.8764 36.4786L-0.687486 71.4468L1.51504 70.1752ZM17.4512 59.5061L-0.222036 69.7098L1.04959 71.9123L18.7228 61.7086L17.4512 59.5061ZM19.1433 61.3154L70.1207 -14.7408L68.0081 -16.1568L17.0307 59.8994L19.1433 61.3154Z" fill="url(#paint2_radial)" mask="url(#path-4-inside-2)"/>
<path d="M206.9 18.6688C206.9 23.8825 209.317 26.693 214.531 26.693C218.901 26.693 223.207 24.557 224.282 20.5254H220.319C219.562 23.5351 216.603 24.9633 212.485 24.0183C211.384 22.5236 210.062 19.4712 209.811 19.2195C209.811 15.3092 210.214 12.2967 213.429 12.2967C216.446 11.8031 218.697 13.4619 219.785 15.8368L210.833 20.5569L210.991 20.8715L220.496 18.7475L224.731 17.7248C224.369 12.8418 220.214 9.7793 215.239 9.7793C210.025 9.7793 206.9 13.4551 206.9 18.6688Z" fill="#EA218D"/>
<path d="M205.972 18.3225C205.972 23.5362 210.198 27.7627 215.412 27.7627C219.493 27.7627 223.436 24.616 224.459 20.5252H224.144C222.844 22.5898 220.097 24.852 217.615 24.852C214.139 24.852 210.456 21.7053 210.456 17.9292C210.456 14.4534 212.644 11.9504 216.12 11.9504C219.315 11.9504 223.216 14.5425 224.559 17.7719L224.852 17.7089C224.567 12.7515 220.441 8.88232 215.412 8.88232C210.198 8.88232 205.972 13.1088 205.972 18.3225Z" fill="#4D31BF"/>
<defs>
<radialGradient id="paint0_radial" cx="0" cy="0" r="1" gradientUnits="userSpaceOnUse" gradientTransform="translate(0.413818 0.510742) rotate(28.1073) scale(273.984 512.969)">
<stop stop-color="#AFA2E7"/>
<stop offset="1" stop-color="#5C40CE"/>
</radialGradient>
<radialGradient id="paint1_radial" cx="0" cy="0" r="1" gradientUnits="userSpaceOnUse" gradientTransform="translate(279.555 31.8994) rotate(138.917) scale(202.159 368.744)">
<stop stop-color="#BEB3E9"/>
<stop offset="1" stop-color="#462DAF" stop-opacity="0.4"/>
</radialGradient>
<radialGradient id="paint2_radial" cx="0" cy="0" r="1" gradientUnits="userSpaceOnUse" gradientTransform="translate(127.184 -45.9582) rotate(136.798) scale(170.159 365.822)">
<stop stop-color="#BEB4E9"/>
<stop offset="1" stop-color="#6044CF" stop-opacity="0.4"/>
</radialGradient>
</defs>
</svg>
