<svg width="312" height="215" viewBox="0 0 312 215" fill="none" xmlns="http://www.w3.org/2000/svg">
<path d="M25.1365 197.216C25.8645 197.216 26.4538 197.459 26.9045 197.944C27.3898 198.429 27.6325 199.001 27.6325 199.66C27.6325 200.353 27.3898 200.925 26.9045 201.376C26.4538 201.792 25.8645 202 25.1365 202H7.04052C6.34718 202 5.75785 201.757 5.27252 201.272C4.78718 200.787 4.54452 200.197 4.54452 199.504V168.096C4.54452 167.403 4.78718 166.813 5.27252 166.328C5.75785 165.843 6.34718 165.6 7.04052 165.6H25.1365C25.8645 165.6 26.4538 165.825 26.9045 166.276C27.3898 166.727 27.6325 167.316 27.6325 168.044C27.6325 168.737 27.3898 169.309 26.9045 169.76C26.4538 170.176 25.8645 170.384 25.1365 170.384H9.69252V180.992H22.7965C23.5245 180.992 24.1138 181.217 24.5645 181.668C25.0499 182.119 25.2925 182.691 25.2925 183.384C25.2925 184.112 25.0499 184.684 24.5645 185.1C24.1138 185.516 23.5245 185.724 22.7965 185.724H9.69252V197.216H25.1365ZM53.615 174.492C54.2737 174.492 54.8284 174.717 55.279 175.168C55.7297 175.584 55.955 176.087 55.955 176.676C55.955 176.988 55.8337 177.421 55.591 177.976L45.711 200.44C45.503 200.891 45.2084 201.255 44.827 201.532C44.4457 201.809 44.0297 201.965 43.579 202C43.0244 202.069 42.5044 201.965 42.019 201.688C41.5684 201.411 41.2217 200.995 40.979 200.44L31.099 177.976C30.9257 177.456 30.839 177.023 30.839 176.676C30.839 176.121 31.0644 175.619 31.515 175.168C31.9657 174.717 32.555 174.492 33.283 174.492C33.803 174.492 34.271 174.631 34.687 174.908C35.103 175.151 35.4324 175.532 35.675 176.052L43.527 194.304L51.379 176.052C51.8644 175.012 52.6097 174.492 53.615 174.492ZM84.9694 187.336C84.9348 187.96 84.6748 188.497 84.1894 188.948C83.7041 189.364 83.1321 189.572 82.4734 189.572H64.1694C64.4121 192.103 65.3654 194.131 67.0294 195.656C68.7281 197.181 70.7908 197.944 73.2174 197.944C74.8814 197.944 76.2334 197.701 77.2734 197.216C78.3134 196.731 79.2321 196.107 80.0294 195.344C80.5494 195.032 81.0521 194.876 81.5374 194.876C82.1268 194.876 82.6121 195.084 82.9934 195.5C83.4094 195.916 83.6174 196.401 83.6174 196.956C83.6174 197.684 83.2708 198.343 82.5774 198.932C81.5721 199.937 80.2374 200.787 78.5734 201.48C76.9094 202.173 75.2108 202.52 73.4774 202.52C70.6694 202.52 68.1908 201.931 66.0414 200.752C63.9268 199.573 62.2801 197.927 61.1014 195.812C59.9574 193.697 59.3854 191.305 59.3854 188.636C59.3854 185.724 59.9748 183.176 61.1534 180.992C62.3668 178.773 63.9441 177.075 65.8854 175.896C67.8614 174.717 69.9761 174.128 72.2294 174.128C74.4481 174.128 76.5281 174.7 78.4694 175.844C80.4108 176.988 81.9708 178.565 83.1494 180.576C84.3281 182.587 84.9348 184.84 84.9694 187.336ZM72.2294 178.704C70.2881 178.704 68.6068 179.259 67.1854 180.368C65.7641 181.443 64.8281 183.124 64.3774 185.412H79.7174V184.996C79.5441 183.159 78.7121 181.651 77.2214 180.472C75.7654 179.293 74.1014 178.704 72.2294 178.704ZM104.59 174.128C110.83 174.128 113.95 177.872 113.95 185.36V199.504C113.95 200.197 113.707 200.787 113.222 201.272C112.771 201.757 112.182 202 111.454 202C110.76 202 110.171 201.757 109.686 201.272C109.235 200.787 109.01 200.197 109.01 199.504V185.412C109.01 183.367 108.542 181.737 107.606 180.524C106.67 179.311 105.144 178.704 103.03 178.704C101.643 178.704 100.378 179.016 99.2337 179.64C98.1243 180.229 97.2403 181.044 96.5817 182.084C95.9577 183.089 95.6457 184.199 95.6457 185.412V199.504C95.6457 200.197 95.403 200.787 94.9177 201.272C94.467 201.757 93.8777 202 93.1497 202C92.4217 202 91.8323 201.775 91.3817 201.324C90.931 200.839 90.7057 200.232 90.7057 199.504V177.248C90.7057 176.555 90.931 175.965 91.3817 175.48C91.867 174.995 92.4563 174.752 93.1497 174.752C93.8777 174.752 94.467 174.995 94.9177 175.48C95.403 175.965 95.6457 176.555 95.6457 177.248V179.068C96.547 177.681 97.795 176.52 99.3897 175.584C101.019 174.613 102.752 174.128 104.59 174.128ZM128.711 179.588V195.084C128.711 196.817 129.491 197.684 131.051 197.684C131.293 197.684 131.623 197.632 132.039 197.528C132.455 197.389 132.784 197.32 133.027 197.32C133.477 197.32 133.859 197.511 134.171 197.892C134.483 198.273 134.639 198.759 134.639 199.348C134.639 200.076 134.223 200.7 133.391 201.22C132.559 201.74 131.623 202 130.583 202C129.439 202 128.381 201.879 127.411 201.636C126.475 201.393 125.625 200.787 124.863 199.816C124.135 198.811 123.771 197.303 123.771 195.292V179.588H120.755C120.096 179.588 119.541 179.38 119.091 178.964C118.675 178.513 118.467 177.959 118.467 177.3C118.467 176.641 118.675 176.104 119.091 175.688C119.541 175.272 120.096 175.064 120.755 175.064H123.771V170.696C123.771 170.003 123.996 169.413 124.447 168.928C124.932 168.443 125.539 168.2 126.267 168.2C126.96 168.2 127.532 168.443 127.983 168.928C128.468 169.413 128.711 170.003 128.711 170.696V175.064H133.027C133.685 175.064 134.223 175.289 134.639 175.74C135.089 176.156 135.315 176.693 135.315 177.352C135.315 178.011 135.089 178.548 134.639 178.964C134.223 179.38 133.685 179.588 133.027 179.588H128.711ZM145.761 199.504C145.761 200.197 145.518 200.787 145.033 201.272C144.582 201.757 143.993 202 143.265 202C142.571 202 141.982 201.757 141.497 201.272C141.046 200.787 140.821 200.197 140.821 199.504V176.988C140.821 176.295 141.046 175.705 141.497 175.22C141.982 174.735 142.571 174.492 143.265 174.492C143.993 174.492 144.582 174.735 145.033 175.22C145.518 175.705 145.761 176.295 145.761 176.988V199.504ZM143.265 171.06C142.259 171.06 141.531 170.887 141.081 170.54C140.665 170.159 140.457 169.569 140.457 168.772V167.94C140.457 167.108 140.682 166.519 141.133 166.172C141.618 165.825 142.346 165.652 143.317 165.652C144.287 165.652 144.981 165.843 145.397 166.224C145.847 166.571 146.073 167.143 146.073 167.94V168.772C146.073 169.604 145.847 170.193 145.397 170.54C144.946 170.887 144.235 171.06 143.265 171.06ZM184.114 174.284C190.181 174.284 193.214 178.063 193.214 185.62V199.504C193.214 200.232 192.989 200.839 192.538 201.324C192.087 201.775 191.498 202 190.77 202C190.042 202 189.435 201.757 188.95 201.272C188.499 200.787 188.274 200.197 188.274 199.504V185.672C188.274 181.131 186.367 178.86 182.554 178.86C181.202 178.86 179.971 179.172 178.862 179.796C177.787 180.385 176.938 181.2 176.314 182.24C175.725 183.28 175.43 184.424 175.43 185.672V199.504C175.43 200.197 175.187 200.787 174.702 201.272C174.251 201.757 173.662 202 172.934 202C172.206 202 171.617 201.775 171.166 201.324C170.715 200.839 170.49 200.232 170.49 199.504V185.62C170.49 183.575 170.057 181.945 169.19 180.732C168.323 179.484 166.885 178.86 164.874 178.86C162.829 178.86 161.13 179.519 159.778 180.836C158.461 182.119 157.802 183.713 157.802 185.62V199.504C157.802 200.197 157.559 200.787 157.074 201.272C156.623 201.757 156.034 202 155.306 202C154.578 202 153.989 201.775 153.538 201.324C153.087 200.839 152.862 200.232 152.862 199.504V177.248C152.862 176.555 153.087 175.965 153.538 175.48C154.023 174.995 154.613 174.752 155.306 174.752C156.034 174.752 156.623 174.995 157.074 175.48C157.559 175.965 157.802 176.555 157.802 177.248V179.068C158.703 177.716 159.899 176.589 161.39 175.688C162.915 174.752 164.562 174.284 166.33 174.284C170.629 174.284 173.419 176.191 174.702 180.004C175.465 178.548 176.73 177.231 178.498 176.052C180.266 174.873 182.138 174.284 184.114 174.284ZM224.516 187.336C224.482 187.96 224.222 188.497 223.736 188.948C223.251 189.364 222.679 189.572 222.02 189.572H203.716C203.959 192.103 204.912 194.131 206.576 195.656C208.275 197.181 210.338 197.944 212.764 197.944C214.428 197.944 215.78 197.701 216.82 197.216C217.86 196.731 218.779 196.107 219.576 195.344C220.096 195.032 220.599 194.876 221.084 194.876C221.674 194.876 222.159 195.084 222.54 195.5C222.956 195.916 223.164 196.401 223.164 196.956C223.164 197.684 222.818 198.343 222.124 198.932C221.119 199.937 219.784 200.787 218.12 201.48C216.456 202.173 214.758 202.52 213.024 202.52C210.216 202.52 207.738 201.931 205.588 200.752C203.474 199.573 201.827 197.927 200.648 195.812C199.504 193.697 198.932 191.305 198.932 188.636C198.932 185.724 199.522 183.176 200.7 180.992C201.914 178.773 203.491 177.075 205.432 175.896C207.408 174.717 209.523 174.128 211.776 174.128C213.995 174.128 216.075 174.7 218.016 175.844C219.958 176.988 221.518 178.565 222.696 180.576C223.875 182.587 224.482 184.84 224.516 187.336ZM211.776 178.704C209.835 178.704 208.154 179.259 206.732 180.368C205.311 181.443 204.375 183.124 203.924 185.412H219.264V184.996C219.091 183.159 218.259 181.651 216.768 180.472C215.312 179.293 213.648 178.704 211.776 178.704ZM235.609 199.504C235.609 200.197 235.366 200.787 234.881 201.272C234.395 201.757 233.806 202 233.113 202C232.419 202 231.83 201.757 231.345 201.272C230.894 200.787 230.669 200.197 230.669 199.504V166.016C230.669 165.323 230.911 164.733 231.397 164.248C231.882 163.763 232.471 163.52 233.165 163.52C233.858 163.52 234.43 163.763 234.881 164.248C235.366 164.733 235.609 165.323 235.609 166.016V199.504ZM248.085 199.504C248.085 200.197 247.842 200.787 247.357 201.272C246.906 201.757 246.317 202 245.589 202C244.896 202 244.306 201.757 243.821 201.272C243.37 200.787 243.145 200.197 243.145 199.504V176.988C243.145 176.295 243.37 175.705 243.821 175.22C244.306 174.735 244.896 174.492 245.589 174.492C246.317 174.492 246.906 174.735 247.357 175.22C247.842 175.705 248.085 176.295 248.085 176.988V199.504ZM245.589 171.06C244.584 171.06 243.856 170.887 243.405 170.54C242.989 170.159 242.781 169.569 242.781 168.772V167.94C242.781 167.108 243.006 166.519 243.457 166.172C243.942 165.825 244.67 165.652 245.641 165.652C246.612 165.652 247.305 165.843 247.721 166.224C248.172 166.571 248.397 167.143 248.397 167.94V168.772C248.397 169.604 248.172 170.193 247.721 170.54C247.27 170.887 246.56 171.06 245.589 171.06ZM269.07 174.128C275.31 174.128 278.43 177.872 278.43 185.36V199.504C278.43 200.197 278.187 200.787 277.702 201.272C277.251 201.757 276.662 202 275.934 202C275.241 202 274.651 201.757 274.166 201.272C273.715 200.787 273.49 200.197 273.49 199.504V185.412C273.49 183.367 273.022 181.737 272.086 180.524C271.15 179.311 269.625 178.704 267.51 178.704C266.123 178.704 264.858 179.016 263.714 179.64C262.605 180.229 261.721 181.044 261.062 182.084C260.438 183.089 260.126 184.199 260.126 185.412V199.504C260.126 200.197 259.883 200.787 259.398 201.272C258.947 201.757 258.358 202 257.63 202C256.902 202 256.313 201.775 255.862 201.324C255.411 200.839 255.186 200.232 255.186 199.504V177.248C255.186 176.555 255.411 175.965 255.862 175.48C256.347 174.995 256.937 174.752 257.63 174.752C258.358 174.752 258.947 174.995 259.398 175.48C259.883 175.965 260.126 176.555 260.126 177.248V179.068C261.027 177.681 262.275 176.52 263.87 175.584C265.499 174.613 267.233 174.128 269.07 174.128ZM309.727 187.336C309.693 187.96 309.433 188.497 308.947 188.948C308.462 189.364 307.89 189.572 307.231 189.572H288.927C289.17 192.103 290.123 194.131 291.787 195.656C293.486 197.181 295.549 197.944 297.975 197.944C299.639 197.944 300.991 197.701 302.031 197.216C303.071 196.731 303.99 196.107 304.787 195.344C305.307 195.032 305.81 194.876 306.295 194.876C306.885 194.876 307.37 195.084 307.751 195.5C308.167 195.916 308.375 196.401 308.375 196.956C308.375 197.684 308.029 198.343 307.335 198.932C306.33 199.937 304.995 200.787 303.331 201.48C301.667 202.173 299.969 202.52 298.235 202.52C295.427 202.52 292.949 201.931 290.799 200.752C288.685 199.573 287.038 197.927 285.859 195.812C284.715 193.697 284.143 191.305 284.143 188.636C284.143 185.724 284.733 183.176 285.911 180.992C287.125 178.773 288.702 177.075 290.643 175.896C292.619 174.717 294.734 174.128 296.987 174.128C299.206 174.128 301.286 174.7 303.227 175.844C305.169 176.988 306.729 178.565 307.907 180.576C309.086 182.587 309.693 184.84 309.727 187.336ZM296.987 178.704C295.046 178.704 293.365 179.259 291.943 180.368C290.522 181.443 289.586 183.124 289.135 185.412H304.475V184.996C304.302 183.159 303.47 181.651 301.979 180.472C300.523 179.293 298.859 178.704 296.987 178.704Z" fill="white"/>
<path d="M158.285 102.5C163.485 102.5 168.535 100.7 173.435 97.1L179.885 107.45C176.585 109.65 172.985 111.4 169.085 112.7C165.285 113.9 161.585 114.5 157.985 114.5C151.085 114.5 145.035 113.1 139.835 110.3C134.735 107.4 130.785 103.45 127.985 98.45C125.185 93.45 123.785 87.8 123.785 81.5C123.785 75.4 125.285 69.85 128.285 64.85C131.385 59.75 135.585 55.75 140.885 52.85C146.185 49.85 151.985 48.35 158.285 48.35C166.385 48.35 173.135 50.75 178.535 55.55C184.035 60.25 187.785 66.85 189.785 75.35L140.585 92.6C142.385 95.7 144.785 98.15 147.785 99.95C150.885 101.65 154.385 102.5 158.285 102.5ZM157.235 59.45C151.535 59.45 146.835 61.45 143.135 65.45C139.435 69.45 137.585 74.55 137.585 80.75C137.585 82.25 137.635 83.4 137.735 84.2L173.885 70.85C172.385 67.45 170.235 64.7 167.435 62.6C164.735 60.5 161.335 59.45 157.235 59.45Z" fill="white"/>
</svg>
